HIERARCHY
ROOT Hips
{
	OFFSET 0.000000 97.167313 0.000000
	CHANNELS 6 Xposition Yposition Zposition Xrotation Yrotation Zrotation
	JOINT Spine
	{
		OFFSET 0.000000 13.784798 0.064400
		CHANNELS 3 Xrotation Yrotation Zrotation
		JOINT Spine1
		{
			OFFSET 0.000000 12.037903 0.404700
			CHANNELS 3 Xrotation Yrotation Zrotation
			JOINT Spine2
			{
				OFFSET 0.000000 17.795601 0.420200
				CHANNELS 3 Xrotation Yrotation Zrotation
				JOINT Neck
				{
					OFFSET 0.000000 39.131302 11.954600
					CHANNELS 3 Xrotation Yrotation Zrotation
					JOINT Head
					{
						OFFSET 0.000000 14.456192 15.627699
						CHANNELS 3 Xrotation Yrotation Zrotation
						JOINT HeadTop_End
						{
							OFFSET 0.000000 15.703506 7.603401
							CHANNELS 3 Xrotation Yrotation Zrotation
							End Site
							{
								OFFSET 0.000000 17.447403 0.000000
							}
						}
					}
				}
				JOINT LeftShoulder
				{
					OFFSET 17.399500 24.608795 1.168800
					CHANNELS 3 Xrotation Yrotation Zrotation
					JOINT LeftArm
					{
						OFFSET 18.980635 5.765305 1.818600
						CHANNELS 3 Xrotation Yrotation Zrotation
						JOINT LeftForeArm
						{
							OFFSET 49.290169 0.000000 0.000000
							CHANNELS 3 Xrotation Yrotation Zrotation
							JOINT LeftHand
							{
								OFFSET 31.562012 0.000000 0.000000
								CHANNELS 3 Xrotation Yrotation Zrotation
								JOINT LeftHandThumb1
								{
									OFFSET 6.133995 -4.388519 7.076070
									CHANNELS 3 Xrotation Yrotation Zrotation
									JOINT LeftHandThumb2
									{
										OFFSET 6.037666 -3.485840 3.485847
										CHANNELS 3 Xrotation Yrotation Zrotation
										JOINT LeftHandThumb3
										{
											OFFSET 6.496506 -3.750763 3.750761
											CHANNELS 3 Xrotation Yrotation Zrotation
											JOINT LeftHandThumb4
											{
												OFFSET 5.616882 -3.242905 3.242910
												CHANNELS 3 Xrotation Yrotation Zrotation
												End Site
												{
													OFFSET -1.254608 7.132141 0.375429
												}
											}
										}
									}
								}
								JOINT LeftHandPinky1
								{
									OFFSET 18.920792 -0.453171 -11.426712
									CHANNELS 3 Xrotation Yrotation Zrotation
									JOINT LeftHandPinky2
									{
										OFFSET 4.919586 0.000000 0.000000
										CHANNELS 3 Xrotation Yrotation Zrotation
										JOINT LeftHandPinky3
										{
											OFFSET 5.233047 0.000000 0.000000
											CHANNELS 3 Xrotation Yrotation Zrotation
											JOINT LeftHandPinky4
											{
												OFFSET 5.571716 0.000000 0.000000
												CHANNELS 3 Xrotation Yrotation Zrotation
												End Site
												{
													OFFSET -3.459808 4.342407 -0.466164
												}
											}
										}
									}
								}
								JOINT LeftHandRing1
								{
									OFFSET 22.726120 -0.094986 -6.500475
									CHANNELS 3 Xrotation Yrotation Zrotation
									JOINT LeftHandRing2
									{
										OFFSET 6.408615 0.000000 0.000000
										CHANNELS 3 Xrotation Yrotation Zrotation
										JOINT LeftHandRing3
										{
											OFFSET 6.150223 0.000000 0.000000
											CHANNELS 3 Xrotation Yrotation Zrotation
											JOINT LeftHandRing4
											{
												OFFSET 6.145386 0.000000 0.000000
												CHANNELS 3 Xrotation Yrotation Zrotation
												End Site
												{
													OFFSET -3.671402 4.923981 -0.202372
												}
											}
										}
									}
								}
								JOINT LeftHandMiddle1
								{
									OFFSET 23.373947 0.000000 0.000001
									CHANNELS 3 Xrotation Yrotation Zrotation
									JOINT LeftHandMiddle2
									{
										OFFSET 6.996567 0.000000 0.000000
										CHANNELS 3 Xrotation Yrotation Zrotation
										JOINT LeftHandMiddle3
										{
											OFFSET 7.015945 0.000000 0.000000
											CHANNELS 3 Xrotation Yrotation Zrotation
											JOINT LeftHandMiddle4
											{
												OFFSET 7.721573 0.000000 0.000000
												CHANNELS 3 Xrotation Yrotation Zrotation
												End Site
												{
													OFFSET -4.651108 6.158463 0.251582
												}
											}
										}
									}
								}
								JOINT LeftHandIndex1
								{
									OFFSET 21.310577 -0.490082 6.209344
									CHANNELS 3 Xrotation Yrotation Zrotation
									JOINT LeftHandIndex2
									{
										OFFSET 7.536453 0.000000 0.000000
										CHANNELS 3 Xrotation Yrotation Zrotation
										JOINT LeftHandIndex3
										{
											OFFSET 7.512344 0.000000 0.000000
											CHANNELS 3 Xrotation Yrotation Zrotation
											JOINT LeftHandIndex4
											{
												OFFSET 10.212402 0.000000 0.000001
												CHANNELS 3 Xrotation Yrotation Zrotation
												End Site
												{
													OFFSET -5.180801 8.690506 1.388433
												}
											}
										}
									}
								}
							}
						}
					}
				}
				JOINT RightShoulder
				{
					OFFSET -17.399500 24.608795 1.168800
					CHANNELS 3 Xrotation Yrotation Zrotation
					JOINT RightArm
					{
						OFFSET -18.980635 5.765305 1.818600
						CHANNELS 3 Xrotation Yrotation Zrotation
						JOINT RightForeArm
						{
							OFFSET -49.290169 0.000000 0.000000
							CHANNELS 3 Xrotation Yrotation Zrotation
							JOINT RightHand
							{
								OFFSET -31.562012 0.000000 0.000000
								CHANNELS 3 Xrotation Yrotation Zrotation
								JOINT RightHandThumb1
								{
									OFFSET -6.133995 -4.388519 7.076070
									CHANNELS 3 Xrotation Yrotation Zrotation
									JOINT RightHandThumb2
									{
										OFFSET -6.037666 -3.485840 3.485847
										CHANNELS 3 Xrotation Yrotation Zrotation
										JOINT RightHandThumb3
										{
											OFFSET -6.496506 -3.750763 3.750761
											CHANNELS 3 Xrotation Yrotation Zrotation
											JOINT RightHandThumb4
											{
												OFFSET -5.616882 -3.242905 3.242910
												CHANNELS 3 Xrotation Yrotation Zrotation
												End Site
												{
													OFFSET 1.254608 7.132141 0.375429
												}
											}
										}
									}
								}
								JOINT RightHandIndex1
								{
									OFFSET -21.310577 -0.490082 6.209344
									CHANNELS 3 Xrotation Yrotation Zrotation
									JOINT RightHandIndex2
									{
										OFFSET -7.536453 0.000000 0.000000
										CHANNELS 3 Xrotation Yrotation Zrotation
										JOINT RightHandIndex3
										{
											OFFSET -7.512344 0.000000 0.000000
											CHANNELS 3 Xrotation Yrotation Zrotation
											JOINT RightHandIndex4
											{
												OFFSET -10.212402 0.000000 0.000001
												CHANNELS 3 Xrotation Yrotation Zrotation
												End Site
												{
													OFFSET 5.180801 8.690506 1.388433
												}
											}
										}
									}
								}
								JOINT RightHandMiddle1
								{
									OFFSET -23.373947 0.000000 0.000001
									CHANNELS 3 Xrotation Yrotation Zrotation
									JOINT RightHandMiddle2
									{
										OFFSET -6.996567 0.000000 0.000000
										CHANNELS 3 Xrotation Yrotation Zrotation
										JOINT RightHandMiddle3
										{
											OFFSET -7.015945 0.000000 0.000000
											CHANNELS 3 Xrotation Yrotation Zrotation
											JOINT RightHandMiddle4
											{
												OFFSET -7.721573 0.000000 0.000000
												CHANNELS 3 Xrotation Yrotation Zrotation
												End Site
												{
													OFFSET 4.651108 6.158463 0.251582
												}
											}
										}
									}
								}
								JOINT RightHandRing1
								{
									OFFSET -22.726120 -0.094986 -6.500475
									CHANNELS 3 Xrotation Yrotation Zrotation
									JOINT RightHandRing2
									{
										OFFSET -6.408615 0.000000 0.000000
										CHANNELS 3 Xrotation Yrotation Zrotation
										JOINT RightHandRing3
										{
											OFFSET -6.150223 0.000000 0.000000
											CHANNELS 3 Xrotation Yrotation Zrotation
											JOINT RightHandRing4
											{
												OFFSET -6.145386 0.000000 0.000000
												CHANNELS 3 Xrotation Yrotation Zrotation
												End Site
												{
													OFFSET 3.671402 4.923981 -0.202372
												}
											}
										}
									}
								}
								JOINT RightHandPinky1
								{
									OFFSET -18.920792 -0.453171 -11.426712
									CHANNELS 3 Xrotation Yrotation Zrotation
									JOINT RightHandPinky2
									{
										OFFSET -4.919586 0.000000 0.000000
										CHANNELS 3 Xrotation Yrotation Zrotation
										JOINT RightHandPinky3
										{
											OFFSET -5.233047 0.000000 0.000000
											CHANNELS 3 Xrotation Yrotation Zrotation
											JOINT RightHandPinky4
											{
												OFFSET -5.571716 0.000000 0.000000
												CHANNELS 3 Xrotation Yrotation Zrotation
												End Site
												{
													OFFSET 3.459808 4.342407 -0.466164
												}
											}
										}
									}
								}
							}
						}
					}
				}
			}
		}
	}
	JOINT LeftUpLeg
	{
		OFFSET 19.899099 -7.885101 -3.429500
		CHANNELS 3 Xrotation Yrotation Zrotation
		JOINT LeftLeg
		{
			OFFSET 1.745560 -36.997807 10.304700
			CHANNELS 3 Xrotation Yrotation Zrotation
			JOINT LeftFoot
			{
				OFFSET -1.745558 -29.803308 -13.615400
				CHANNELS 3 Xrotation Yrotation Zrotation
				JOINT LeftToeBase
				{
					OFFSET 1.181900 -18.539904 15.226099
					CHANNELS 3 Xrotation Yrotation Zrotation
					JOINT LeftToe_End
					{
						OFFSET -0.863701 1.402801 16.534700
						CHANNELS 3 Xrotation Yrotation Zrotation
						End Site
						{
							OFFSET 0.000000 16.616566 0.000000
						}
					}
				}
			}
		}
	}
	JOINT RightUpLeg
	{
		OFFSET -19.899099 -7.885101 -3.429500
		CHANNELS 3 Xrotation Yrotation Zrotation
		JOINT RightLeg
		{
			OFFSET -1.745560 -36.997807 10.304700
			CHANNELS 3 Xrotation Yrotation Zrotation
			JOINT RightFoot
			{
				OFFSET 1.745558 -29.803308 -13.615400
				CHANNELS 3 Xrotation Yrotation Zrotation
				JOINT RightToeBase
				{
					OFFSET -1.181900 -18.539904 15.226099
					CHANNELS 3 Xrotation Yrotation Zrotation
					JOINT RightToe_End
					{
						OFFSET 0.863701 1.402801 16.534700
						CHANNELS 3 Xrotation Yrotation Zrotation
						End Site
						{
							OFFSET 0.000000 16.616566 0.000000
						}
					}
				}
			}
		}
	}
}
MOTION
Frames: 4
Frame Time: 0.033333
-4.945485 19.946640 16.245956 -108.912393 5.775755 2.923223 15.999785 -2.079317 -0.484675 1.893380 -2.016758 0.788930 1.891411 -1.936013 0.926215 6.955148 -0.120092 -0.008223 -18.877794 -1.122042 -4.479511 -0.000001 0.000000 0.000000 0.657298 -8.003502 -6.414423 14.836131 10.102405 -27.614060 -0.000002 -10.693506 -0.000005 -41.023021 3.054910 -4.635484 5.109865 -6.331135 -3.206791 10.001279 22.995686 2.989970 -4.220957 28.919219 20.144125 0.000001 0.000002 -0.000001 3.256926 7.563476 -62.910325 1.816860 4.241442 -46.360992 0.363499 2.033305 -20.270092 0.000002 -0.000001 -0.000008 2.349253 6.993088 -52.379881 2.410870 4.735704 -53.940169 0.428607 2.201468 -22.032213 -0.000000 0.000000 0.000005 1.466128 6.157842 -40.436943 0.714821 2.806287 -28.576557 0.435648 2.218731 -22.214285 0.000001 0.000001 0.000004 0.528408 4.645362 -22.935996 0.701583 2.781819 -28.304669 0.443038 2.236745 -22.404737 -0.000000 0.000001 0.000001 0.372256 1.872820 1.490301 4.825366 -7.422699 25.832172 -0.000000 8.451041 0.000003 -34.471401 2.655593 -6.367692 -8.491170 9.825441 0.931201 11.653071 -28.207279 -3.870442 -2.099859 -24.806836 -10.659121 0.000001 0.000001 0.000003 0.309271 -3.820013 19.254238 0.487394 -2.075990 26.421651 0.440661 -1.979252 25.101497 -0.000002 0.000000 -0.000001 0.535474 -4.355854 26.412114 0.497299 -2.095777 26.693779 0.434103 -1.965191 24.910721 -0.000001 0.000001 -0.000006 2.831440 -7.572976 36.363958 0.499214 -2.099600 26.746199 0.427874 -1.951710 24.728364 -0.000003 -0.000002 -0.000005 7.039773 -11.873845 41.616377 0.496293 -2.093829 26.666814 0.369782 -1.820376 22.963388 -0.000003 0.000001 -0.000001 -37.440604 6.846328 63.871414 20.634888 -1.340140 -1.438166 67.349326 11.030047 17.144630 0.387915 0.000003 -0.000012 0.000001 0.000001 -0.000001 -19.835081 19.490870 -41.360470 100.194852 16.416028 6.032771 35.592720 -2.205498 -3.097783 0.191386 0.000027 -0.000005 0.000000 -0.000002 -0.000000 
-5.142467 19.887444 16.047806 -109.213509 5.936245 3.065722 16.340558 -2.147057 -0.538314 1.931147 -2.057887 0.755155 1.928604 -1.978064 0.894323 6.951173 -0.121525 -0.001532 -18.701698 -1.151140 -4.554945 0.000001 -0.000000 0.000000 0.642088 -7.975336 -6.774243 15.431766 10.985948 -27.340569 -0.000018 -12.356747 0.000001 -40.642334 2.430464 -6.361197 5.109877 -6.331125 -3.206792 10.001269 22.995673 2.989957 -4.220950 28.919222 20.144120 -0.000001 0.000002 -0.000002 3.256940 7.563477 -62.910318 1.816850 4.241431 -46.360998 0.363498 2.033307 -20.270096 0.000003 0.000003 -0.000004 2.349259 6.993074 -52.379874 2.410875 4.735709 -53.940190 0.428618 2.201470 -22.032201 -0.000002 0.000003 -0.000002 1.466130 6.157862 -40.436947 0.714849 2.806276 -28.576560 0.435616 2.218726 -22.214268 0.000001 -0.000000 0.000004 0.528392 4.645372 -22.935990 0.701583 2.781849 -28.304669 0.443038 2.236755 -22.404723 -0.000001 0.000001 0.000002 0.347264 1.554831 1.519835 4.698883 -7.223878 25.832578 0.000021 8.544109 -0.000006 -33.794717 3.010149 -4.556131 -8.491173 9.825427 0.931189 11.653075 -28.207254 -3.870434 -2.099870 -24.806842 -10.659133 -0.000001 -0.000004 0.000002 0.309294 -3.820004 19.254247 0.487368 -2.075992 26.421660 0.440655 -1.979242 25.101498 -0.000003 -0.000003 -0.000001 0.535466 -4.355858 26.412118 0.497303 -2.095794 26.693788 0.434104 -1.965195 24.910714 -0.000000 0.000001 -0.000002 2.831439 -7.572960 36.363951 0.499202 -2.099596 26.746213 0.427875 -1.951709 24.728352 -0.000002 -0.000000 -0.000005 7.039781 -11.873855 41.616390 0.496294 -2.093817 26.666788 0.369783 -1.820357 22.963390 0.000001 0.000000 0.000000 -37.149283 6.826961 63.427138 21.018049 -0.344706 -1.200549 65.669489 11.910622 19.509173 0.545935 0.000013 -0.000023 -0.000000 0.000001 -0.000001 -19.547195 19.086918 -41.388750 100.439783 15.650538 5.901760 35.194896 -2.286401 -3.619701 0.182439 0.000003 0.000003 -0.000000 0.000000 0.000000 
-5.438340 19.980499 15.978897 -109.349628 6.211350 3.090334 16.611642 -2.182590 -0.673114 1.862161 -2.081513 0.711914 1.857590 -2.001147 0.853925 6.954414 -0.129105 0.033985 -17.903311 -1.639226 -4.588040 0.000001 -0.000000 0.000000 0.633212 -8.043239 -7.047368 16.130709 13.287002 -26.976927 0.000019 -16.745887 0.000004 -41.844737 4.148401 -8.040871 5.109888 -6.331128 -3.206798 10.001251 22.995691 2.989970 -4.220962 28.919219 20.144140 0.000001 -0.000001 -0.000002 3.256937 7.563470 -62.910338 1.816853 4.241437 -46.360988 0.363494 2.033297 -20.270091 0.000002 0.000001 0.000003 2.349263 6.993088 -52.379884 2.410878 4.735691 -53.940190 0.428614 2.201464 -22.032201 -0.000001 0.000000 0.000003 1.466129 6.157861 -40.436950 0.714843 2.806274 -28.576562 0.435636 2.218730 -22.214272 0.000001 -0.000002 0.000001 0.528402 4.645378 -22.935996 0.701576 2.781820 -28.304663 0.443032 2.236752 -22.404750 -0.000001 -0.000000 -0.000001 0.282212 0.809437 1.178711 3.747779 -7.060945 26.100204 0.000008 8.791814 -0.000004 -33.403023 0.794526 -1.294382 -8.491166 9.825437 0.931185 11.653047 -28.207264 -3.870436 -2.099849 -24.806839 -10.659140 -0.000001 0.000001 0.000002 0.309274 -3.820004 19.254245 0.487390 -2.075986 26.421639 0.440670 -1.979242 25.101493 -0.000001 -0.000001 -0.000001 0.535465 -4.355868 26.412118 0.497318 -2.095777 26.693769 0.434095 -1.965174 24.910733 0.000000 -0.000000 -0.000004 2.831444 -7.572977 36.363948 0.499215 -2.099614 26.746211 0.427876 -1.951704 24.728353 0.000001 0.000001 0.000000 7.039753 -11.873854 41.616390 0.496302 -2.093834 26.666775 0.369782 -1.820355 22.963369 -0.000002 0.000002 0.000001 -36.671146 3.413816 62.309111 28.210430 1.140502 -1.613744 54.195341 10.406597 20.949621 -0.462110 -0.000010 -0.000001 0.000001 -0.000000 0.000000 -19.827433 18.619304 -40.525561 101.445200 16.088990 5.468485 32.913223 -2.094950 -2.980592 -0.000013 -0.000011 0.000005 0.000000 0.000001 0.000000 
-5.146283 20.282303 16.146469 -109.185034 6.391618 2.800341 16.557147 -2.059701 -0.521997 1.706516 -2.018662 0.730422 1.700105 -1.935956 0.873416 6.972389 -0.135793 0.065380 -16.458200 -2.450050 -4.525135 0.000000 -0.000000 -0.000000 0.630077 -8.119649 -7.180417 16.814782 15.931635 -26.011836 0.000007 -22.705509 -0.000006 -45.893714 7.486632 -6.158304 5.109898 -6.331130 -3.206793 10.001262 22.995679 2.989964 -4.220953 28.919226 20.144118 0.000000 0.000003 -0.000002 3.256946 7.563465 -62.910332 1.816854 4.241437 -46.360988 0.363487 2.033306 -20.270103 0.000002 -0.000002 -0.000004 2.349255 6.993091 -52.379867 2.410880 4.735710 -53.940186 0.428600 2.201467 -22.032189 -0.000002 0.000003 -0.000002 1.466145 6.157848 -40.436936 0.714848 2.806273 -28.576574 0.435644 2.218721 -22.214284 -0.000002 -0.000000 0.000004 0.528397 4.645365 -22.936001 0.701591 2.781838 -28.304669 0.443036 2.236745 -22.404740 0.000000 0.000001 0.000001 0.213580 0.147590 0.634542 1.973893 -6.622485 25.856837 0.000009 8.984759 0.000002 -33.943861 -4.017130 1.623955 -8.491177 9.825435 0.931190 11.653057 -28.207259 -3.870433 -2.099859 -24.806846 -10.659127 0.000000 0.000001 0.000003 0.309290 -3.820001 19.254244 0.487368 -2.075987 26.421637 0.440668 -1.979253 25.101507 0.000000 0.000000 -0.000001 0.535470 -4.355863 26.412118 0.497309 -2.095780 26.693785 0.434097 -1.965193 24.910740 -0.000003 0.000000 -0.000008 2.831414 -7.572974 36.363954 0.499211 -2.099605 26.746193 0.427875 -1.951705 24.728343 -0.000001 0.000001 -0.000003 7.039775 -11.873853 41.616384 0.496312 -2.093817 26.666799 0.369783 -1.820366 22.963361 -0.000000 -0.000000 0.000006 -35.755316 -2.716458 61.426808 40.490150 0.608656 -2.868325 37.790470 5.652870 16.019703 -2.484377 -0.000015 -0.000010 -0.000003 -0.000001 -0.000004 -21.154590 18.972172 -39.264360 103.502269 18.587636 5.218903 27.138667 -1.657058 -1.358937 0.000007 0.000006 0.000004 0.000000 0.000001 0.000000 
